Motion_pl12
version=1
nRows=5
nColumns=43
inDegrees=yes
endheader
time	pelvis_tilt	pelvis_list	pelvis_rotation	pelvis_tx	pelvis_ty	pelvis_tz	hip_flexion_r	hip_adduction_r	hip_rotation_r	knee_angle_r	ankle_angle_r	subtalar_angle_r	mtp_angle_r	hip_flexion_l	hip_adduction_l	hip_rotation_l	knee_angle_l	ankle_angle_l	subtalar_angle_l	mtp_angle_l	lumbar_extension	lumbar_bending	lumbar_rotation	neck_flexion	neck_lateral_bending	neck_rotation	arm_flex_r	arm_add_r	arm_rot_r	elbow_flex_r	pro_sup_r	wrist_flex_r	wrist_dev_r	hand_finger_flex_r	arm_flex_l	arm_add_l	arm_rot_l	elbow_flex_l	pro_sup_l	wrist_flex_l	wrist_dev_l	hand_finger_flex_l
      1.44750000	      1.31964361	     -4.11860419	     83.35608957	     -0.00634863	      0.43991293	      0.48821242	     96.85259214	     -2.36697634	     -1.77062646	   -138.36421130	     23.31692945	     10.11098771	     39.24841696	     97.70435178	    -15.07445303	      3.70264626	   -140.42417293	     20.16699178	     14.59344423	     31.16602109	    -59.66388813	     -1.75555578	      4.23638481	      8.88229468	     -0.85024894	      1.93984103	    116.37984341	    -17.31574969	     43.84638330	     63.82233369	    116.41885198	     -5.73568494	      3.90519813	     -6.42816655	    113.18945570	    -24.48953555	     43.50271183	     66.12220810	     96.37471571	    -15.91739581	     -4.69641850	     28.67291854
      1.45000000	      1.34579955	     -4.19233653	     83.32522907	     -0.00633470	      0.44141626	      0.48779104	     96.71171577	     -2.36652099	     -1.80007599	   -138.17777413	     23.24062067	     10.15343989	     39.24787735	     97.52954008	    -15.09795059	      3.67643656	   -140.28310146	     20.18235238	     14.59774588	     31.17239440	    -59.53457084	     -1.75090842	      4.24030099	      8.87223546	     -0.86636312	      1.94932059	    116.30923923	    -17.35580536	     43.96461356	     63.86511189	    116.43667223	     -5.69044951	      3.88125885	     -6.41265605	    113.15507604	    -24.53399319	     43.57597544	     66.07805721	     96.38859713	    -15.88931847	     -4.66476399	     28.68551924
      1.45250000	      1.39620299	     -4.05154497	     83.21383364	     -0.00627367	      0.44343390	      0.48739712	     96.35248548	     -2.29988730	     -1.79940317	   -137.99590970	     22.86962902	     10.42983987	     39.29959072	     97.07918553	    -15.24079071	      3.61079543	   -140.15566209	     20.45833236	     14.55235143	     31.23645107	    -59.66798984	     -1.82336256	      4.39756773	      8.64979473	     -0.96546897	      2.00211075	    116.54145136	    -17.69296265	     44.51470386	     64.01174317	    116.59600577	     -5.46833646	      3.74994144	     -6.34721282	    113.36598058	    -24.51787398	     43.92458844	     65.94873317	     96.43492941	    -15.70332069	     -4.45964464	     28.78609505
      1.45500000	      1.41738191	     -4.14022709	     83.20035049	     -0.00626572	      0.44482848	      0.48700542	     96.23861822	     -2.30406574	     -1.82114250	   -137.81783596	     22.85449243	     10.44600362	     39.30352601	     96.94266549	    -15.25584835	      3.58649242	   -140.04003547	     20.45502638	     14.55513773	     31.24094863	    -59.51540770	     -1.80913614	      4.38038887	      8.70199922	     -0.95608964	      1.98890654	    116.45359886	    -17.69743806	     44.59863456	     64.00429831	    116.60142061	     -5.44693565	      3.74986027	     -6.34225023	    113.31788386	    -24.53969274	     43.95481595	     65.88516397	     96.42990479	    -15.69065343	     -4.44003945	     28.79376296
      1.45750000	      1.43723869	     -4.23996130	     83.18413490	     -0.00627922	      0.44635917	      0.48668434	     96.10006536	     -2.31497584	     -1.85883519	   -137.61153167	     22.82715131	     10.47050566	     39.30732208	     96.81481848	    -15.27645196	      3.53963464	   -139.87114506	     20.45519522	     14.55555549	     31.24563130	    -59.36921176	     -1.79829972	      4.37027914	      8.71935789	     -0.95806491	      1.98242547	    116.38343791	    -17.71816960	     44.68936640	     64.01060853	    116.61165295	     -5.42534070	      3.74771922	     -6.33738496	    113.28095462	    -24.55899920	     43.98499699	     65.82182288	     96.42182897	    -15.66984132	     -4.42001591	     28.80663402
